<mxfile host="app.diagrams.net" modified="2023-09-27T16:15:09.223Z" agent="Mozilla/5.0 (Windows NT 10.0; Win64; x64; rv:109.0) Gecko/20100101 Firefox/117.0" etag="gRNNlWgG9vgiuNVHHmkI" version="21.8.0" type="device">
  <diagram name="PÃ¡gina-1" id="uLLE9xcBZAL9IsNxi--x">
    <mxGraphModel dx="880" dy="462" grid="1" gridSize="10" guides="1" tooltips="1" connect="1" arrows="1" fold="1" page="1" pageScale="1" pageWidth="827" pageHeight="1169" math="0" shadow="0">
      <root>
        <mxCell id="0" />
        <mxCell id="1" parent="0" />
        <mxCell id="vYP1lrNpKRu_MKm1QBxM-2" value="&lt;div&gt;usuarios:&lt;/div&gt;&lt;div&gt;&lt;br&gt;&lt;/div&gt;&lt;div&gt;&lt;br&gt;&lt;/div&gt;&lt;div&gt;usuario_id: PK&lt;br&gt;&lt;/div&gt;&lt;div&gt;nombre : string not null&lt;/div&gt;&lt;div&gt;email: string not null&lt;/div&gt;&lt;div&gt;constrasenia : string not null&lt;br&gt;&lt;/div&gt;&lt;div&gt;&lt;br&gt;&lt;/div&gt;" style="whiteSpace=wrap;html=1;aspect=fixed;" vertex="1" parent="1">
          <mxGeometry x="530" y="220" width="200" height="200" as="geometry" />
        </mxCell>
        <mxCell id="vYP1lrNpKRu_MKm1QBxM-5" value="" style="group" vertex="1" connectable="0" parent="1">
          <mxGeometry x="70" y="210" width="250" height="220" as="geometry" />
        </mxCell>
        <mxCell id="vYP1lrNpKRu_MKm1QBxM-1" value="&lt;div&gt;topicos:&lt;/div&gt;&lt;div&gt;&lt;br&gt;&lt;/div&gt;&lt;div&gt;&lt;br&gt;&lt;/div&gt;&lt;div&gt;topico_id: PK&lt;br&gt;&lt;/div&gt;&lt;div&gt;titulo: string not null unique&lt;br&gt;&lt;/div&gt;&lt;div&gt;mensaje: string not null unique&lt;/div&gt;&lt;div&gt;fecha_creacion: date not null &lt;br&gt;&lt;/div&gt;&lt;div&gt;status: strinFK not null &lt;br&gt;&lt;/div&gt;&lt;div&gt;&lt;br&gt;&lt;/div&gt;&lt;div&gt;usuario_id&lt;/div&gt;&lt;div&gt;&lt;br&gt;&lt;/div&gt;&lt;div&gt;curso_id: FK not null&lt;/div&gt;&lt;div&gt;&amp;nbsp;&lt;br&gt;&lt;/div&gt;&lt;div&gt;respuestas: string &lt;br&gt;&lt;/div&gt;" style="rounded=0;whiteSpace=wrap;html=1;" vertex="1" parent="vYP1lrNpKRu_MKm1QBxM-5">
          <mxGeometry x="-40" width="290" height="220" as="geometry" />
        </mxCell>
        <mxCell id="vYP1lrNpKRu_MKm1QBxM-3" value="" style="endArrow=none;html=1;rounded=0;" edge="1" parent="vYP1lrNpKRu_MKm1QBxM-5">
          <mxGeometry width="50" height="50" relative="1" as="geometry">
            <mxPoint x="20" y="40" as="sourcePoint" />
            <mxPoint x="200" y="40" as="targetPoint" />
            <Array as="points">
              <mxPoint x="100" y="40" />
            </Array>
          </mxGeometry>
        </mxCell>
        <mxCell id="vYP1lrNpKRu_MKm1QBxM-6" value="" style="endArrow=classic;html=1;rounded=0;exitX=1;exitY=0.75;exitDx=0;exitDy=0;entryX=0;entryY=0.5;entryDx=0;entryDy=0;" edge="1" parent="1" source="vYP1lrNpKRu_MKm1QBxM-1" target="vYP1lrNpKRu_MKm1QBxM-2">
          <mxGeometry width="50" height="50" relative="1" as="geometry">
            <mxPoint x="390" y="360" as="sourcePoint" />
            <mxPoint x="440" y="310" as="targetPoint" />
          </mxGeometry>
        </mxCell>
        <mxCell id="vYP1lrNpKRu_MKm1QBxM-7" value="1" style="text;html=1;strokeColor=none;fillColor=none;align=center;verticalAlign=middle;whiteSpace=wrap;rounded=0;" vertex="1" parent="1">
          <mxGeometry x="490" y="275" width="60" height="30" as="geometry" />
        </mxCell>
        <mxCell id="vYP1lrNpKRu_MKm1QBxM-8" value="m" style="text;html=1;strokeColor=none;fillColor=none;align=center;verticalAlign=middle;whiteSpace=wrap;rounded=0;" vertex="1" parent="1">
          <mxGeometry x="310" y="330" width="60" height="30" as="geometry" />
        </mxCell>
        <mxCell id="vYP1lrNpKRu_MKm1QBxM-11" value="&lt;div&gt;cursos:&lt;/div&gt;&lt;div&gt;&lt;br&gt;&lt;/div&gt;&lt;div&gt;&lt;br&gt;&lt;/div&gt;&lt;div&gt;curso_id: PK &lt;br&gt;&lt;/div&gt;&lt;div&gt;nombre: string not null&lt;br&gt;&lt;/div&gt;&lt;div&gt;categoria: string not null&lt;br&gt;&lt;/div&gt;&lt;div&gt;&lt;br&gt;&lt;/div&gt;" style="whiteSpace=wrap;html=1;aspect=fixed;" vertex="1" parent="1">
          <mxGeometry x="460" y="490" width="150" height="150" as="geometry" />
        </mxCell>
        <mxCell id="vYP1lrNpKRu_MKm1QBxM-12" value="" style="endArrow=none;html=1;rounded=0;" edge="1" parent="1">
          <mxGeometry width="50" height="50" relative="1" as="geometry">
            <mxPoint x="530" y="280" as="sourcePoint" />
            <mxPoint x="730" y="280" as="targetPoint" />
          </mxGeometry>
        </mxCell>
        <mxCell id="vYP1lrNpKRu_MKm1QBxM-13" value="" style="endArrow=none;html=1;rounded=0;" edge="1" parent="1">
          <mxGeometry width="50" height="50" relative="1" as="geometry">
            <mxPoint x="460" y="540" as="sourcePoint" />
            <mxPoint x="610" y="540" as="targetPoint" />
          </mxGeometry>
        </mxCell>
        <mxCell id="vYP1lrNpKRu_MKm1QBxM-14" value="" style="endArrow=classic;html=1;rounded=0;entryX=0;entryY=0.5;entryDx=0;entryDy=0;" edge="1" parent="1" target="vYP1lrNpKRu_MKm1QBxM-11">
          <mxGeometry width="50" height="50" relative="1" as="geometry">
            <mxPoint x="320" y="390" as="sourcePoint" />
            <mxPoint x="440" y="400" as="targetPoint" />
            <Array as="points">
              <mxPoint x="340" y="550" />
            </Array>
          </mxGeometry>
        </mxCell>
        <mxCell id="vYP1lrNpKRu_MKm1QBxM-15" value="1" style="text;strokeColor=none;fillColor=none;align=left;verticalAlign=middle;spacingLeft=4;spacingRight=4;overflow=hidden;points=[[0,0.5],[1,0.5]];portConstraint=eastwest;rotatable=0;whiteSpace=wrap;html=1;" vertex="1" parent="1">
          <mxGeometry x="440" y="540" width="80" height="30" as="geometry" />
        </mxCell>
        <mxCell id="vYP1lrNpKRu_MKm1QBxM-16" value="m" style="text;html=1;strokeColor=none;fillColor=none;align=center;verticalAlign=middle;whiteSpace=wrap;rounded=0;" vertex="1" parent="1">
          <mxGeometry x="300" y="400" width="60" height="30" as="geometry" />
        </mxCell>
      </root>
    </mxGraphModel>
  </diagram>
</mxfile>
